<svg xmlns="http://www.w3.org/2000/svg" viewBox="0 0 600 400" font-family="IBM Plex Mono, Consolas, monospace">
  <rect width="600" height="400" fill="#fdfeff"/>
  <g stroke="#52646f" stroke-width="1.5" fill="none">
    <!-- Front view: desk organizer with slots -->
    <rect x="110" y="140" width="220" height="140" rx="10"/>
    <line x1="165" y1="140" x2="165" y2="280"/>
    <line x1="220" y1="140" x2="220" y2="280"/>
    <line x1="275" y1="140" x2="275" y2="280"/>
    <!-- Top view -->
    <rect x="410" y="120" width="140" height="90" rx="8"/>
    <line x1="445" y1="120" x2="445" y2="210"/>
    <line x1="480" y1="120" x2="480" y2="210"/>
    <line x1="515" y1="120" x2="515" y2="210"/>
    <!-- Print-layer detail callout -->
    <circle cx="410" cy="290" r="34"/>
    <g stroke-width="1">
      <line x1="384" y1="278" x2="436" y2="278"/>
      <line x1="382" y1="286" x2="438" y2="286"/>
      <line x1="382" y1="294" x2="438" y2="294"/>
      <line x1="384" y1="302" x2="436" y2="302"/>
    </g>
    <line x1="330" y1="255" x2="386" y2="272" stroke-width="1"/>
  </g>
  <g stroke="#35618e" stroke-width="1.2" fill="#35618e">
    <line x1="110" y1="320" x2="330" y2="320" fill="none"/>
    <path d="M110 320 l8 -3 v6 z"/>
    <path d="M330 320 l-8 -3 v6 z"/>
    <line x1="110" y1="288" x2="110" y2="326" fill="none" stroke-width="0.8"/>
    <line x1="330" y1="288" x2="330" y2="326" fill="none" stroke-width="0.8"/>
  </g>
  <text x="220" y="312" text-anchor="middle" font-size="13" fill="#35618e">220.0</text>
  <text x="220" y="360" text-anchor="middle" font-size="12" fill="#52646f" letter-spacing="2">FRONT VIEW</text>
  <text x="480" y="240" text-anchor="middle" font-size="12" fill="#52646f" letter-spacing="2">TOP</text>
  <text x="410" y="352" text-anchor="middle" font-size="11" fill="#52646f" letter-spacing="1">DETAIL A &#8212; LAYER LINES</text>
  <text x="30" y="42" font-size="12" fill="#35618e" letter-spacing="2">DWG-003 &#183; PRINTED PRODUCT</text>
  <text x="30" y="60" font-size="10" fill="#9fb0bc" letter-spacing="1">PLACEHOLDER DRAWING &#8212; REPLACE WITH PHOTO</text>
</svg>
